<svg width="56" height="54" viewBox="0 0 56 54" fill="none" xmlns="http://www.w3.org/2000/svg">
<path d="M21.8257 35.7349V18.265C21.8261 18.0465 21.886 17.832 21.9992 17.6441C22.1124 17.4563 22.2748 17.3019 22.4692 17.1973C22.6637 17.0926 22.8831 17.0415 23.1044 17.0492C23.3258 17.057 23.5409 17.1234 23.7274 17.2414L37.4984 25.9739C37.6727 26.0842 37.8162 26.2359 37.9156 26.4152C38.015 26.5945 38.0671 26.7956 38.0671 27C38.0671 27.2043 38.015 27.4054 37.9156 27.5847C37.8162 27.764 37.6727 27.9158 37.4984 28.026L23.7274 36.7609C23.5409 36.879 23.3258 36.9454 23.1044 36.9531C22.8831 36.9609 22.6637 36.9098 22.4692 36.8051C22.2748 36.7004 22.1124 36.5461 21.9992 36.3582C21.886 36.1704 21.8261 35.9559 21.8257 35.7373V35.7349Z" fill="#713EFF"/>
<path d="M0.833252 27C0.833252 12.194 12.9965 0.190796 27.9999 0.190796C43.0033 0.190796 55.1666 12.194 55.1666 27C55.1666 41.806 43.0033 53.8092 27.9999 53.8092C12.9965 53.8092 0.833252 41.806 0.833252 27ZM27.9999 3.8466C21.7774 3.8466 15.8097 6.28597 11.4097 10.6281C7.00969 14.9702 4.5378 20.8593 4.5378 27C4.5378 33.1407 7.00969 39.0298 11.4097 43.3719C15.8097 47.714 21.7774 50.1534 27.9999 50.1534C34.2224 50.1534 40.1901 47.714 44.5901 43.3719C48.9901 39.0298 51.462 33.1407 51.462 27C51.462 20.8593 48.9901 14.9702 44.5901 10.6281C40.1901 6.28597 34.2224 3.8466 27.9999 3.8466Z" fill="#713EFF"/>
</svg>
